<?xml version="1.0" encoding="utf-8"?>
<svg width="9.999999999999998" height="22" xmlns="http://www.w3.org/2000/svg" xmlns:xlink="http://www.w3.org/1999/xlink">
 <g>
  <title>Layer 1</title>
  <g id="svg_1">
   <path id="svg_2" d="m9.95,1.1l-0.8,5.9c-0.099999,0.5 -0.5,0.9 -1,0.9h-1.599999c0,0.1 -0.1,0.2 -0.1,0.3c-0.1,0.2 -0.2,0.5 -0.3,1c-0.1,0.400001 -0.1,0.900001 -0.1,1.6l0,0.2l0,0.2c0,0.6 0,1.2 0.1,1.6c0.1,0.5 0.2,0.8 0.2,1.099999c0,0.1 0.1,0.200001 0.1,0.3l1.6,0c0.5,0 0.9,0.400001 1,0.900001l0.8,5.799999c0.099999,0.6 -0.400001,1.1 -1,1.1l-3.6,0c-0.2,0 -0.5,0 -0.9,-0.1c-0.3,-0.1 -0.5,-0.199999 -0.8,-0.4l-0.1,-0.1c-0.1,-0.1 -0.2,-0.1 -0.3,-0.199999c-0.2,-0.200001 -0.5,-0.5 -0.8,-1c-0.4,-0.5 -0.7,-1.1 -1.1,-2c-0.3,-0.800001 -0.6,-1.800001 -0.9,-3.000001c-0.2,-1.099999 -0.4,-2.5 -0.4,-4l0,-0.2l0,-0.2c0,-1.2 0.1,-2.2 0.2,-3.2c0.2,-1 0.4,-1.9 0.6,-2.6c0.2,-0.8 0.5,-1.4 0.8,-2c0.7,-0.5 0.9,-1 1.2,-1.3c0.3,-0.4 0.5,-0.7 0.7,-0.9l0.3,-0.3c0.3,-0.1 0.5,-0.3 0.8,-0.4c0.3,-0.1 0.6,-0.1 0.9,-0.1l3.5,0c0.6,0 1.1,0.5 1,1.1z" fill="#ffffff"/>
  </g>
  <use x="0" y="0" transform="matrix(22.46933364868164,0,0,22.46933364868164,0,0) " id="svg_4" xlink:href="#svg_3"/>
 </g>
 <defs>
  <svg viewBox="0 0 10 22" y="0px" x="0px" id="svg_3" xmlns:xlink="http://www.w3.org/1999/xlink">
   <g>
    <path d="m9.7,1.1l-0.8,5.9c-0.099999,0.5 -0.5,0.9 -1,0.9h-1.6c0,0.1 -0.1,0.2 -0.1,0.3c-0.1,0.2 -0.2,0.5 -0.3,1c-0.1,0.400001 -0.1,0.900001 -0.1,1.6l0,0.2l0,0.2c0,0.6 0,1.2 0.1,1.6c0.1,0.5 0.2,0.8 0.2,1.099999c0,0.1 0.1,0.200001 0.1,0.3l1.6,0c0.5,0 0.9,0.400001 1,0.900001l0.8,5.799999c0.099999,0.6 -0.400001,1.1 -1,1.1l-3.6,0c-0.2,0 -0.5,0 -0.9,-0.1c-0.3,-0.1 -0.5,-0.199999 -0.8,-0.4l-0.1,-0.1c-0.1,-0.1 -0.2,-0.1 -0.3,-0.199999c-0.2,-0.200001 -0.5,-0.5 -0.8,-1c-0.4,-0.5 -0.7,-1.1 -1.1,-2c-0.3,-0.800001 -0.6,-1.800001 -0.9,-3.000001c-0.2,-1.099999 -0.4,-2.5 -0.4,-4l0,-0.2l0,-0.2c0,-1.2 0.1,-2.2 0.2,-3.2c0.2,-1 0.4,-1.9 0.6,-2.6c0.2,-0.8 0.5,-1.4 0.8,-2c0.7,-0.5 0.9,-1 1.2,-1.3c0.3,-0.4 0.5,-0.7 0.7,-0.9l0.3,-0.3c0.3,-0.1 0.5,-0.3 0.8,-0.4c0.3,-0.1 0.6,-0.1 0.9,-0.1l3.5,0c0.6,0 1.1,0.5 1,1.1z" fill="#0B080D"/>
   </g>
  </svg>
 </defs>
</svg>