<svg xmlns="http://www.w3.org/2000/svg" viewBox="0 0 33.78778 33.80365"><title>Asset 18@300</title><g id="Layer_2" data-name="Layer 2"><g id="Layer_2-2" data-name="Layer 2"><path fill="#475561" d="M33.53139,27.56074a1.24343,1.24343,0,0,0-.1056-1.6335,1.29727,1.29727,0,0,0-.16828-.13534l-.00321-.0098-7.25343-5.19094-.0098.00659c-1.11547-.76066-2.419,1.2209-2.87434,2.12855-.47528.94533-.99331,1.8447-1.63029,3.38409C19.44711,25.79528,8.00282,14.34423,7.69261,12.3081a23.15083,23.15083,0,0,0,3.60357-1.95841c.60065-.39435,2.35614-1.88271,1.90738-2.55095V7.79046l-5.181-7.26H8.00941A1.36564,1.36564,0,0,0,7.87069.359,1.24258,1.24258,0,0,0,6.24057.25657C2.76575,2.63923-.37588,5.25776.03655,8.35648c.439,3.32461,4.50784,10.07978,9.6856,15.25906,5.181,5.181,12.39469,9.71347,15.71119,10.15074,3.09871.4175,5.71556-2.72734,8.09805-6.20554"/></g></g></svg>