<svg xmlns="http://www.w3.org/2000/svg" viewBox="0 0 33 33"><title>browser from Illustrator</title><g id="Layer_2" data-name="Layer 2"><g id="Layer_1-2" data-name="Layer 1"><g id="Page-1"><g id="browser"><path id="Shape" fill="#475561" d="M16.41,33h.18A16.57,16.57,0,0,0,33,16.5,16.32,16.32,0,0,0,16.9,0h-.81A16.32,16.32,0,0,0,0,16.5,16.57,16.57,0,0,0,16.41,33ZM15,31a13.65,13.65,0,0,1-4.87-7L10,23.7h5.69v7.82ZM2.65,22.93a14.92,14.92,0,0,1-1.43-6.11H7.76a26.17,26.17,0,0,0,.74,5.94V23ZM23,9.6a23.09,23.09,0,0,1,.89,6.06H17.3V9.6Zm7.13,0a15.33,15.33,0,0,1,1.6,6.05H25.19a25.16,25.16,0,0,0-.85-5.91V9.6ZM17.3,22.93v-6.1h6.6a24.26,24.26,0,0,1-.77,6.11Zm7.2,0v-.19a26,26,0,0,0,.67-5.92h6.54a14.94,14.94,0,0,1-1.43,6.11ZM15.7,9.6v6.05H9A23,23,0,0,1,10,9.6Zm-7,0v.15a25.1,25.1,0,0,0-.85,5.91H1.26A15.3,15.3,0,0,1,2.86,9.6ZM9,16.82H15.7v6.11H9.8A24.27,24.27,0,0,1,9,16.83ZM18,31l-.71.49V23.7H23l-.11.35A13.65,13.65,0,0,1,18,31Zm9.31-3.71A15.21,15.21,0,0,1,21.23,31l-1.6.52,1.14-1.24a16.27,16.27,0,0,0,3.55-6.49v-.08H30l-.25.44a15.54,15.54,0,0,1-2.5,3.12ZM20.74,1.79a14.89,14.89,0,0,1,8.7,6.55l.08.13H23.9a15.7,15.7,0,0,0-3.62-5.93L19.08,1.4ZM18,2.21a13.29,13.29,0,0,1,4.64,6.18H17.3V1.7Zm-2.28-.49V8.45H10.38A13.29,13.29,0,0,1,15,2.28Zm-3.41.08L14,1.35,12.76,2.49a15.68,15.68,0,0,0-3.65,6H3.49l.08-.13a14.89,14.89,0,0,1,8.7-6.55ZM3.1,23.7H8.79v.08a16.29,16.29,0,0,0,3.55,6.49l1.14,1.24L11.87,31a15.45,15.45,0,0,1-6.12-3.68,15.61,15.61,0,0,1-2.42-3.13Z"/></g></g></g></g></svg>