<svg xmlns="http://www.w3.org/2000/svg" viewBox="0 0 43.91056 16.7115"><title>Asset 17@300</title><g id="Layer_2" data-name="Layer 2"><g id="Layer_1-2" data-name="Layer 1"><path fill="#FF3347" d="M.63951,15.5196a1.37294,1.37294,0,0,0,1.3574,1.1919,1.34826,1.34826,0,0,0,.2383-.0259c.0097.0063,9.7275-1.6104,9.7275-1.6104,1.4678-.2895.9395-2.853.5869-3.9189-.208-.6304-.3945-1.2603-.6455-1.9981a1.78007,1.78007,0,0,1,1.2403-2.4555,82.81312,82.81312,0,0,1,17.622-.002,1.83945,1.83945,0,0,1,1.2832,2.4732c-.2724.915-.4521,1.7339-.6054,2.4096-.1612.7769-.3721,3.3091.5,3.482.0068.0063,9.7216,1.6259,9.7216,1.6259.0889.003.168.0142.251.0152a1.37355,1.37355,0,0,0,1.3535-1.1919c.8526-4.5762,1.2647-9.0742-1.4756-11.1704C38.85331,2.0928,30.40411-.0009,22.31721,0c-8.0889.0025-17.2627,2.0987-20.1963,4.3496-2.7451,2.0953-2.334,6.5933-1.4814,11.17"/></g></g></svg>