<svg width="16" height="20" xmlns="http://www.w3.org/2000/svg">
 <g>
  <title>Layer 1</title>
  <g id="svg_1">
   <path id="svg_2" d="m5.7,10.2l-1.7,1.7c-0.2,-0.599999 -0.4,-1.2 -0.4,-1.799999h0c0,-0.5 -0.4,-1 -1,-1c-0.5,0 -1,0.4 -1,1c0,0 0,0 0,0c0,1.2 0.3,2.299999 0.8,3.299999l-2.3,2.3l0,0c-0.3,0.400001 -0.3,1.000001 0,1.3c0.4,0.4 1,0.4 1.3,0l0,0l0,0c0,0 0,0 0,0c0,0 0,0 0,0l2,-2c0,0 0,0 0,0l1.4,-1.4c0,0 0,0 0,0l1.4,-1.400001c0,0 0,0 0,0l5.1,-5.1v0l4,-4c0,0 0,0 0,0c0.4,-0.4 0.4,-1 0,-1.4c-0.400001,-0.4 -1,-0.4 -1.400001,0l0,0l-2.599999,2.6l-5.6,5.9z" fill="#7A7A7A"/>
   <g id="svg_3">
    <path id="svg_4" d="m5.1,11.8c0.1,0.2 0.1,0.3 0.2,0.4c0.1,0.2 0.3,0.400001 0.5,0.6c0,0 0,0 0,0l5.2,-5.1l1.6,-1.6v-2c0,-2.2 -1.8,-4 -4,-4c-1.1,0 -2.1,0.4 -2.8,1.2c0,0 0,0 0,0c-0.2,0.2 -0.3,0.4 -0.4,0.6c-0.1,0.1 -0.2,0.3 -0.3,0.5c0,0 -0.1,0.1 -0.1,0.2c-0.2,0.5 -0.3,1 -0.3,1.6v5.900001c0,0.599999 0.1,1.099999 0.3,1.599999c0,0 0.1,0.1 0.1,0.1z" fill="#7A7A7A"/>
    <path id="svg_5" d="m11,10.5l0,0l-3.4,3.4c0.3,0.1 0.7,0.200001 1,0.200001c2.2,0 4,-1.8 4,-4v-0.3v-1l-1.6,1.7z" fill="#7A7A7A"/>
   </g>
   <path id="svg_6" d="m14.6,9.1c-0.5,0 -1,0.4 -1,1l0,0c0,2.7 -2.200001,5 -5,5c-0.6,0 -1.2,-0.1 -1.8,-0.400001l-1.5,1.500001c0.7,0.4 1.5,0.599998 2.3,0.799999v1h-2c-0.5,0 -1,0.4 -1,1c0,0.5 0.4,1 1,1v0h6v0c0.5,0 1,-0.4 1,-1c0,-0.5 -0.400001,-1 -1,-1v0h-2v-1.1c3.4,-0.5 6,-3.4 6,-6.9h0c0,-0.5 -0.400001,-0.9 -1,-0.9z" fill="#7A7A7A"/>
  </g>
 </g>
</svg>