<svg xmlns="http://www.w3.org/2000/svg" viewBox="0 0 25.65883 39.99997"><title>Asset 16@300</title><g id="Layer_2" data-name="Layer 2"><g id="Layer_2-2" data-name="Layer 2"><path fill="#2BAA85" d="M17.6973,6.88046a6.01278,6.01278,0,0,0-5.8858-6.129A5.82107,5.82107,0,0,0,6.9,3.51523L17.6973,18.2269ZM11.81149,27.7139a5.6863,5.6863,0,0,0,3.60687-1.31921L5.927,13.457v8.12781A6.01059,6.01059,0,0,0,11.81149,27.7139Zm10.588-5.99493c0-.01178.00439-.02069.00439-.03247V14.88828A1.26557,1.26557,0,0,0,21.16428,13.597,1.17549,1.17549,0,0,0,20.041,14.88828v6.53436l2.04449,2.78748A11.64025,11.64025,0,0,0,22.39944,21.719ZM19.19632,37.41751H12.98776v-4.8703a10.31111,10.31111,0,0,0,5.30353-2.23907L16.86,28.35666a7.99785,7.99785,0,0,1-5.04852,1.80707,8.40521,8.40521,0,0,1-8.234-8.45953l.00433-.0177V14.88828A1.26567,1.26567,0,0,0,2.34213,13.597,1.1746,1.1746,0,0,0,1.219,14.88828v6.79822c0,.01483.00592.02661.00592.03986a10.87054,10.87054,0,0,0,9.41028,10.82086v4.8703H4.428A1.2923,1.2923,0,0,0,4.428,40H19.19632a1.29236,1.29236,0,0,0,0-2.58246ZM25.43747,31.654,2.6282.4271A1.03851,1.03851,0,0,0,1.13791.22971L.40829.81778A1.13775,1.13775,0,0,0,.2211,2.36551L23.03189,33.59085a1.03429,1.03429,0,0,0,1.48724.1991l.72961-.58826A1.135,1.135,0,0,0,25.43747,31.654Z"/></g></g></svg>