<?xml version="1.0" encoding="utf-8"?>
<!-- Generator: Adobe Illustrator 19.0.1, SVG Export Plug-In . SVG Version: 6.00 Build 0)  -->
<svg version="1.1" id="Layer_1" xmlns="http://www.w3.org/2000/svg" xmlns:xlink="http://www.w3.org/1999/xlink" x="0px" y="0px"
	 width="24px" height="24px" viewBox="0 0 24 24" style="enable-background:new 0 0 24 24;" xml:space="preserve">
<style type="text/css">
	.st0{fill:none;}
	.st1{fill:#fff;}
</style>
<path class="st0" d="M0,0h24v24H0V0z"/>
<path class="st1" d="M8.7,7.3l7.4,4.3c0.4,0.2,0.3,0.8-0.1,1l-7.3,4.3C8.3,17.3,8,17,8,16.5V7.9C8,7.4,8.3,7.1,8.7,7.3z"/>
<g>
	<path class="st1" d="M-39,10c0,0.6-0.4,1-1,1h-2c-0.6,0-1-0.4-1-1V3c0-0.6,0.4-1,1-1h2c0.6,0,1,0.4,1,1V10z"/>
	<path class="st1" d="M-34,10c0,0.6-0.4,1-1,1h-2c-0.6,0-1-0.4-1-1V3c0-0.6,0.4-1,1-1h2c0.6,0,1,0.4,1,1V10z"/>
</g>
<path class="st1" d="M-21,12c0,0.6-0.4,1-1,1h-7c-0.6,0-1-0.4-1-1V5c0-0.6,0.4-1,1-1h7c0.6,0,1,0.4,1,1V12z"/>
</svg>
