<svg xmlns="http://www.w3.org/2000/svg" viewBox="0 0 34.36874 31.50468"><title>Asset 14@300</title><g id="Layer_2" data-name="Layer 2"><g id="Layer_3" data-name="Layer 3"><path fill="#475561" d="M32.36874,2V23.77655H2V2H32.36874m0-2H2A2.00587,2.00587,0,0,0,0,2V23.77655a2.00587,2.00587,0,0,0,2,2H32.36874a2.00587,2.00587,0,0,0,2-2V2a2.00587,2.00587,0,0,0-2-2Z"/><path fill="#475561" d="M22.09579,24.34452c0,1.432,1.22785,4.614,1.22785,5.28528s-.55659,1.87488-1.22785,1.87488H12.27295c-.67126,0-1.22785-1.20361-1.22785-1.87488,0-.70949,1.22785-3.85324,1.22785-5.28528Z"/><path fill="#475561" d="M26.38891,11.5464l-5.38776,5.38776c-.12631.12631.091.19994-.088.19994-.36818,0-.2879-.30529-.2879-.67347v-4.059H17.49675c-4.53531,0-7.513,1.556-7.513,6.57557,0,.43108.021,1.204.05267,1.63556.01023.16824.05267.5286.05267.69684,0,.19994-.12631.45351-.337.45351a.3006.3006,0,0,1-.29455-.13632,5.37082,5.37082,0,0,1-.38966-.77845,13.30891,13.30891,0,0,1-1.3362-4.73482,9.9203,9.9203,0,0,1,.5579-3.58808C9.7521,8.89522,14.04553,8.201,17.49675,8.201h3.12854V5.68511c0-.36818-.08028-.67347.2879-.67347.179,0,.15443.07364.28074.19994l5.29137,5.38776a.62983.62983,0,0,1,.15175.47353A.7242.7242,0,0,1,26.38891,11.5464Z"/></g></g></svg>