<?xml version="1.0" encoding="utf-8"?>
<svg width="22" height="10" xmlns="http://www.w3.org/2000/svg">
 <g>
  <title>Layer 1</title>
  <g id="svg_1">
   <path id="svg_2" d="m20.799999,9.6l-5.799999,-0.8c-0.5,-0.1 -0.9,-0.5 -0.9,-1v-1.6c-0.1,0 -0.200001,-0.1 -0.3,-0.1c-0.3,-0.1 -0.6,-0.2 -1.1,-0.2c-0.4,-0.1 -0.9,-0.1 -1.599999,-0.1l-0.200001,0l-0.2,0c-0.599999,0 -1.2,0 -1.599999,0.1c-0.400001,0 -0.700001,0.1 -1,0.2c-0.1,0 -0.2,0 -0.3,0.1l0,1.6c0,0.5 -0.4,0.9 -0.9,1l-5.8,0.8c-0.6,0.099999 -1.1,-0.400001 -1.1,-1l0,-3.6c0,-0.2 0,-0.5 0.1,-0.9c0.1,-0.3 0.2,-0.5 0.4,-0.8l0.1,-0.1c0.1,-0.1 0.1,-0.2 0.2,-0.3c0.2,-0.2 0.5,-0.5 1,-0.8c0.5,-0.4 1.1,-0.7 2,-1.1c0.8,-0.3 1.8,-0.6 3,-0.9c1.2,0 2.5,-0.1 4,-0.1l0.2,0l0.2,0c1.2,0 2.2,0.1 3.2,0.2c1,0.2 1.9,0.4 2.6,0.6c0.799999,0.2 1.4,0.5 2,0.8c0.5,0.3 1,0.5 1.299999,0.8c0.400002,0.3 0.700001,0.5 0.900002,0.7l0.299999,0.3c0.200001,0.2 0.299999,0.5 0.4,0.8c0.1,0.3 0.1,0.6 0.1,0.9l0,3.5c0,0.599999 -0.6,1.099999 -1.200001,1z" fill="#ffffff"/>
  </g>
 </g>
</svg>