<?xml version="1.0" encoding="utf-8"?>
<!-- Generator: Adobe Illustrator 19.0.1, SVG Export Plug-In . SVG Version: 6.00 Build 0)  -->
<svg version="1.1" id="Layer_1" xmlns="http://www.w3.org/2000/svg" xmlns:xlink="http://www.w3.org/1999/xlink" x="0px" y="0px"
	 width="24px" height="24px" viewBox="0 0 24 24" style="enable-background:new 0 0 24 24;" xml:space="preserve">
<style type="text/css">
	.st0{fill:none;}
	.st1{fill:#fff;}
</style>
<path class="st0" d="M0,0h24v24H0V0z"/>
<g>
	<path class="st1" d="M11.5,15.5c0,0.6-0.4,1-1,1h-2c-0.6,0-1-0.4-1-1v-7c0-0.6,0.4-1,1-1h2c0.6,0,1,0.4,1,1V15.5z"/>
	<path class="st1" d="M16.5,15.5c0,0.6-0.4,1-1,1h-2c-0.6,0-1-0.4-1-1v-7c0-0.6,0.4-1,1-1h2c0.6,0,1,0.4,1,1V15.5z"/>
</g>
</svg>
